<svg xmlns="http://www.w3.org/2000/svg" width="73.0003" height="22.02273" viewBox="0 0 73.0003 22.02273"><title>toma leche</title><path d="M72.51643,6.18871a.4777.4777,0,1,0,.48389.47632A.4777.4777,0,0,0,72.51643,6.18871Zm0,.87573a.39815.39815,0,1,1,.38769-.39941A.38683.38683,0,0,1,72.51643,7.06444Zm.2204-.51678c0-.10871-.06464-.15674-.19525-.15674h-.21009v.5509h.08344V6.70305h.09637l.14557.23877h.09381l-.1571-.24249A.14368.14368,0,0,0,72.73683,6.54766Zm-.3219.08459V6.46172H72.529c.05829,0,.1203.01263.1203.08093,0,.0846-.06329.0896-.13427.0896ZM3.13862,1.30535H1.2613v4.9151H0V7.82964H1.2613V21.75542H3.13862V7.82964H4.39991V6.22045H3.13862ZM8.85731,5.92791c-2.4054,0-2.93341,2.01861-2.93341,4.8858v6.40735c0,2.86694.49872,4.79779,2.90417,4.79779,2.43451,0,2.93335-1.814,2.93335-4.79779V10.81371C11.76142,7.85881,11.26258,5.92791,8.85731,5.92791ZM9.85462,18.567c0,1.1991-.32275,1.81373-.99731,1.81373-.6748,0-1.02673-.64362-1.02673-1.8725V9.38005c0-1.1408.35193-1.75524,1.02673-1.75524.67456,0,.99731.64361.99731,1.78454ZM22.0998,6.162c-.88,0-1.43762.35107-2.25891,1.43347-.46942-1.0824-.9093-1.49219-1.84808-1.49219-.82141,0-1.32013.35114-2.02393,1.19971V6.22045h-1.9068V21.75554h1.9068V9.08751c.6745-.78985,1.056-1.14087,1.46649-1.14087.49884,0,.67481.468.67481,1.46259V21.75554H20.0168V9.11675c.46942-.73132.90942-1.141,1.46691-1.141.52808,0,.7038.46826.7038,1.463V21.75554h1.9068V9.49724C24.09431,7.5078,23.77168,6.162,22.0998,6.162Zm10.2945,4.59308c0-3.01337-.55762-4.798-2.72809-4.798-2.024,0-2.75739,1.46271-2.75739,3.86188v1.28741H28.8155V9.58483c0-1.375.23468-1.96.88-1.96.616,0,.82129.70214.82129,1.8139V11.6035C27.466,13.1541,26.41,14.5291,26.41,17.89385c0,2.6333.88013,4.00805,2.40552,4.00805a2.09116,2.09116,0,0,0,1.78919-.9364l.35229.79h1.87714a10.30737,10.30737,0,0,1-.43982-2.95471Zm-1.8775,7.75311c0,.99481-.20533,1.87262-.96778,1.87262-.79223,0-1.17383-.81964-1.17383-2.16535,0-2.633.32294-3.5108,2.14161-4.7688Zm7.415,3.2218h1.90711V.022H37.93177ZM44.9112,5.93163c-2.464,0-2.93377,1.98962-2.93377,4.85681v6.40711c0,2.86718.46978,4.8272,2.87475,4.8272,2.259,0,2.96289-1.69689,2.96289-4.41754V16.34716H45.9084v1.84289c0,1.49249-.2345,2.16529-1.05622,2.16529-.73315,0-.93847-.7024-.93847-1.902V14.44555h3.90136V9.93993C47.81507,7.57012,46.99378,5.93163,44.9112,5.93163Zm1.02649,6.72912h-2.024V9.53032c0-1.22882.20532-1.9602.93847-1.9602.88,0,1.08551.67279,1.08551,2.13574ZM52.858,5.93181c-2.43475,0-2.904,1.98944-2.904,4.85663v6.40711c0,2.86718.4693,4.8272,2.87469,4.8272,2.25879,0,2.93366-1.69689,2.93366-4.41741V16.34716H53.88459v1.84289c0,1.49249-.23449,2.16529-1.056,2.16529-.73309,0-.99725-.7024-.99725-1.902v-8.923c0-1.28717.23456-1.9602,1.11432-1.9602.7334,0,.9389.673.9389,1.81384v1.81409h1.90668V9.53032C55.79127,7.30681,54.67659,5.93181,52.858,5.93181Zm8.76953.1463c-.85083,0-1.31988.38019-1.93622,1.19953V.022H57.785V21.73015h1.90631V8.82811c.61634-.61438.90949-.90686,1.34949-.90686.49872,0,.675.43878.675,1.46259V21.73015H63.6222V9.41326C63.6222,7.51165,63.32893,6.07811,61.62751,6.07811Zm7.06678-.14648c-2.46381,0-2.93348,1.98962-2.93348,4.85681v6.40711c0,2.86718.46967,4.8272,2.87488,4.8272,2.2583,0,2.96283-1.69689,2.96283-4.41754V16.34716H69.6919v1.84289c0,1.49249-.23522,2.16529-1.05621,2.16529-.7334,0-.9386-.7024-.9386-1.902V14.44555h3.90143V9.93993C71.59852,7.57012,70.7768,5.93163,68.69429,5.93163Zm1.02648,6.72912H67.69709V9.53032c0-1.22882.2052-1.9602.9386-1.9602.87988,0,1.08508.67279,1.08508,2.13574Z" fill="#ffffff"/></svg>
