<svg xmlns="http://www.w3.org/2000/svg" width="94.24487" height="40.51878" viewBox="0 0 94.24487 40.51878"><title>got milk</title><path d="M6.32093,9.81072V10.861c-.04419-.0083-.06366-.006-.0733-.01465-.07385-.06671-.14758-.13385-.21826-.20379a3.22906,3.22906,0,0,0-3.02124-.96515,3.267,3.267,0,0,0-2.431,2.0747,7.77217,7.77217,0,0,0-.5658,3.23511Q.01658,21.66363.0157,28.34a14.82592,14.82592,0,0,0,.06738,1.51661A5.27254,5.27254,0,0,0,.9568,32.44384a2.79035,2.79035,0,0,0,2.93792,1.11547A4.122,4.122,0,0,0,5.58906,32.55c.229-.2002.449-.41083.71491-.65509,0,.9248.01666,1.78808-.00654,2.65027a9.35789,9.35789,0,0,1-.14709,1.48321,2.23782,2.23782,0,0,1-2.3446,2.03308c-.535.02045-1.073-.03576-1.64246-.05835-.1377.65418-.28174,1.33826-.42432,2.01569l.16877.07831a5.86289,5.86289,0,0,0,3.27453.33886,3.86421,3.86421,0,0,0,3.358-2.59106,9.63661,9.63661,0,0,0,.55231-3.4718q.01035-12.16938.00482-24.33881c0-.07251-.006-.145-.00952-.22363Zm.02961,19.04834a.57932.57932,0,0,1-.091.32269A14.2617,14.2617,0,0,1,5.364,30.33837a1.40437,1.40437,0,0,1-1.03558.47686c-.81921.01722-1.29327-.41778-1.40466-1.32537a10.22046,10.22046,0,0,1-.06433-1.21674c-.00592-2.21686-.00281-4.43378-.00281-6.65057,0-2.26679-.00549-4.53351.00494-6.80011.002-.4292.0625-.85858.10565-1.28693a1.52865,1.52865,0,0,1,.091-.33508,1.21131,1.21131,0,0,1,2.04315-.62079,4.76811,4.76811,0,0,1,1.2232,1.61462.47622.47622,0,0,1,.02875.21759Q6.355,21.63537,6.35054,28.85906ZM20.59828,14.17882a7.653,7.653,0,0,0-.67621-2.7641,3.25947,3.25947,0,0,0-1.83252-1.76849,4.8315,4.8315,0,0,0-3.34229-.02789,3.58274,3.58274,0,0,0-2.16681,2.352,10.91314,10.91314,0,0,0-.5863,3.69531c-.02557,3.30511-.022,6.61047-.0191,9.91577.00091.9129.01953,1.8269.06769,2.73834a8.91737,8.91737,0,0,0,.59259,2.91309,3.34811,3.34811,0,0,0,2.44824,2.19952,6.91345,6.91345,0,0,0,1.5802.1308,3.49584,3.49584,0,0,0,3.49688-2.555,12.05044,12.05044,0,0,0,.54261-3.90326c.01831-1.86005.00458-3.7204.00458-5.58069h.00622c0-1.47.01312-2.94006-.00458-4.40979C20.69764,16.13543,20.66926,15.155,20.59828,14.17882Zm-2.73352,14.0763a12.58526,12.58526,0,0,1-.1518,1.60522,1.82684,1.82684,0,0,1-.20154.55811,1.175,1.175,0,0,1-1.06005.70678,1.20721,1.20721,0,0,1-1.14045-.6214,3.2625,3.2625,0,0,1-.42938-1.69329c-.01959-1.65992-.01391-3.3202-.01691-4.98041q-.00219-1.19532-.00018-2.39057,0-3.3869-.0003-6.77362a4.72285,4.72285,0,0,1,.26129-1.81073,1.297,1.297,0,0,1,1.12909-.91815,1.20464,1.20464,0,0,1,1.25793.70709,3.70548,3.70548,0,0,1,.34741,1.49128c.01447.20672.01111.41491.01117.62231Q17.87178,21.50656,17.86476,28.25512ZM27.07545,2.43627H24.26454V9.80681H22.38826v2.44306h1.88012v20.923h2.82025V12.23906h1.87671V9.811H27.07545ZM51.54322,13.775a7.16618,7.16618,0,0,0-.48938-2.57617,2.28582,2.28582,0,0,0-1.57208-1.37329,3.629,3.629,0,0,0-1.84668.007,3.83385,3.83385,0,0,0-1.86462,1.312c-.2.2265-.3888.46289-.59284.70691-.15808-.30267-.29834-.583-.44885-.85761A2.64754,2.64754,0,0,0,41.588,9.68505a3.6563,3.6563,0,0,0-1.91424,1.31817c-.09741.10791-.19184.21851-.28754.32782l-.05408-.016V9.77532h-2.85V33.13005h2.85754V31.69432q0-8.68185.00226-17.3637a.48461.48461,0,0,1,.05963-.3028,13.54355,13.54355,0,0,1,1.41766-1.38959c.74762-.57251,1.44031-.284,1.606.6399a8.92625,8.92625,0,0,1,.11243,1.55981q.01089,8.98077.00458,17.96161v.33179h2.87512v-.33521q0-9.2049.00568-18.40991a.88546.88546,0,0,1,.139-.45526,6.47165,6.47165,0,0,1,.57379-.74982,2.19476,2.19476,0,0,1,1.06159-.70892.95692.95692,0,0,1,1.3573.79,7.875,7.875,0,0,1,.13977,1.53186q.01364,9.018.00592,18.03631v.3197h2.85931v-.29272q0-8.99322-.00061-17.98645C51.55915,14.50554,51.56367,14.13951,51.54322,13.775Zm3.39606,19.39411h2.782V9.82274h-2.782ZM57.71705.54284H54.94136v2.9663h2.77569Zm3.3678,32.63378H63.919V.54107H61.08485Zm12.447-23.27728c-.055.00067-.13953.11957-.15784.196q-.62805,2.625-1.24279,5.25311c-.32709,1.38818-.65247,2.77679-.98542,4.16357-.0188.07813-.095.19812-.15149.20221-.28607.02069-.5744.00952-.89178.00952V.54174H67.30946V33.15721h2.80127V22.25664c.47864,0,.92651-.0011,1.37433.00031a1.40817,1.40817,0,0,1,1.53686,1.14111,5.73407,5.73407,0,0,1,.16565,1.401c.015,2.6825.00726,5.36505.00726,8.04761v.31048H76.017v-.3045q0-4.0362-.00232-8.07251c-.00092-.46448-.0177-.93-.05261-1.39319a3.38172,3.38172,0,0,0-1.627-2.78723c-.2525-.15649-.50647-.3103-.76928-.47107.90429-3.40839,1.80657-6.80933,2.7163-10.238C75.33973,9.89061,74.43568,9.887,73.53187,9.89934ZM85.94508.30034A6.26525,6.26525,0,0,0,83.41084.04155a3.53593,3.53593,0,0,0-3.50519,2.90931,16.34379,16.34379,0,0,0-.39917,4.3496c.00006.01319.0163.02625.02515.0398h2.46545c0-.58814-.018-1.16052.00446-1.73132a6.66267,6.66267,0,0,1,.34332-2.12842,1.49,1.49,0,0,1,1.01172-.9831A1.90583,1.90583,0,0,1,85.68067,3.504a4.88576,4.88576,0,0,1,.47077,1.8695,8.47062,8.47062,0,0,1-.36951,3.65931c-.4751,1.29113-.92425,2.592-1.3706,3.89349-.36811,1.07355-.797,2.135-1.05585,3.23553a26.54635,26.54635,0,0,0-.48615,7.70136c.00922.15521.02332.31012.03583.47381h2.20679c0-.10748-.00177-.20526.0003-.3031.02417-1.1372.03791-2.2749.07673-3.41168a13.44681,13.44681,0,0,1,.63647-3.99212c.84369-2.42676,1.7262-4.84015,2.56622-7.26825a10.3942,10.3942,0,0,0,.2677-5.93561A4.09227,4.09227,0,0,0,85.94508.30034ZM82.27552,33.15673h3.08466V29.27166H82.27552ZM92.33436.022a1.8923,1.8923,0,0,0-1.90509,1.86237,1.89393,1.89393,0,0,0,3.7876.0097A1.85937,1.85937,0,0,0,92.33436.022Zm-.01,3.44635a1.48536,1.48536,0,0,1-1.50549-1.52069A1.49677,1.49677,0,0,1,92.31135.36046a1.52366,1.52366,0,0,1,1.54529,1.54529A1.53386,1.53386,0,0,1,92.32435,3.46831ZM92.825,1.956a.55142.55142,0,0,0,.34076-.64782.4537.4537,0,0,0-.44446-.45539c-.35846-.03119-.72168-.00757-1.087-.00757V2.95055h.27783V2.05266c.2381-.05524.4032-.02582.51007.2005.081.17127.21381.31775.29743.4881.10717.21838.26257.26508.51007.18988-.19989-.303-.38977-.59082-.59851-.90729C92.71894,1.99346,92.77326,1.97771,92.825,1.956Zm-.87274-.16339V1.131a6.14946,6.14946,0,0,1,.62219.00488.288.288,0,0,1,.28449.31324.28726.28726,0,0,1-.29071.30578C92.37324,1.77434,92.17677,1.77953,91.95228,1.79265Z" fill="#ffffff"/></svg>
